<?xml version="1.0" encoding="utf-8"?>
<!-- Generator: Adobe Illustrator 27.9.0, SVG Export Plug-In . SVG Version: 6.00 Build 0)  -->
<svg version="1.1" id="Layer_1" xmlns="http://www.w3.org/2000/svg" xmlns:xlink="http://www.w3.org/1999/xlink" x="0px" y="0px"
	 viewBox="0 0 137.4 137.4" style="enable-background:new 0 0 137.4 137.4;" xml:space="preserve">
<style type="text/css">
	.st0{fill:#1A1A1A;}
</style>
<g>
	<path class="st0" d="M61.3,21.4c-0.1-0.2,0.2-0.4-0.2-0.5c-0.1,0.1-0.2,0.2-0.2,0.3c-0.1,0.3-0.2,0.6-0.2,0.9c0,0.1,0,0.3,0,0.4
		c0,0.1,0.1,0.2,0.2,0.2c0.2,0,0.3-0.1,0.3-0.1c0,0,0-0.1,0-0.1c0.1-0.3,0.5-0.3,0.8-0.3l-0.4-0.5C61.6,21.5,61.4,21.5,61.3,21.4z"
		/>
	<path class="st0" d="M62.7,16.4c0,0.2-0.1,0.4,0.1,0.6C62.9,16.7,62.9,16.7,62.7,16.4z"/>
	<path class="st0" d="M60.3,14.7l-0.3-0.1l-0.2,0.1c0.1,0,0.2,0.1,0.2,0.1C60.2,14.8,60.3,14.7,60.3,14.7z"/>
	<path class="st0" d="M63.5,15.3c-0.1,0.2-0.1,0.3,0.1,0.5C63.7,15.6,63.8,15.4,63.5,15.3z"/>
	<path class="st0" d="M60.2,17.9C60.2,17.9,60.2,17.9,60.2,17.9L60.2,17.9C60.3,17.9,60.3,17.9,60.2,17.9
		C60.3,17.9,60.2,17.9,60.2,17.9z"/>
	<path class="st0" d="M59.9,18c0,0,0.1,0,0.1,0c0.1,0,0.2,0,0.2-0.1c-0.1,0-0.2,0-0.2,0C59.9,17.9,59.9,18,59.9,18z"/>
	<path class="st0" d="M60,17.2C60,17.2,59.9,17.2,60,17.2c-0.1,0-0.1,0-0.2,0l0,0.1L60,17.2z"/>
	<path class="st0" d="M60.2,15.8l-0.1,0c0,0-0.1,0-0.1,0.1c0,0,0,0,0.1,0.1L60.2,15.8z"/>
	<path class="st0" d="M63,15.3c0,0-0.1,0-0.1,0c0,0.1,0,0.1,0,0.2c0,0,0.1,0,0.1,0C63,15.4,63,15.4,63,15.3z"/>
	<path class="st0" d="M63.6,14.6c0,0-0.1-0.1-0.1-0.1l-0.1,0.1C63.5,14.6,63.5,14.7,63.6,14.6C63.6,14.7,63.6,14.6,63.6,14.6z"/>
	<polygon class="st0" points="61.8,21.4 61.8,21.5 61.9,21.4 	"/>
	<path class="st0" d="M61.8,21.5L61.8,21.5L61.8,21.5C61.8,21.5,61.8,21.5,61.8,21.5L61.8,21.5z"/>
	<path class="st0" d="M60.4,18.1L60.3,18C60.3,18,60.3,18.1,60.4,18.1z"/>
	<path class="st0" d="M62.3,18.3c-0.1,0.4,0.1,0.7,0.3,1.1c0.3,0,0.5-0.1,0.8-0.1c-0.1-0.2,0-0.4-0.2-0.5c-0.3-0.1-0.3-0.3-0.3-0.5
		c0-0.2-0.1-0.3-0.1-0.5C62.6,18.1,62.4,18.2,62.3,18.3L62.3,18.3L62.3,18.3L62.3,18.3z"/>
	<polygon class="st0" points="63.7,14.1 63.6,14.1 63.7,14.1 	"/>
	<path class="st0" d="M109,41.1c0.3-0.5,0-1,0.2-1.5c-0.3-0.3-0.9-0.5-0.8-0.8c0.1-0.2-0.3-0.2-0.5-0.3c-0.2-0.1-0.3-0.2-0.2-0.3
		c0.1-0.1,0.2-0.2,0.3-0.3c0.2,0,0.2,0.3,0.5,0.2c0.1-0.4,0.1-0.7,0.3-1.1c0.2-0.4,0.2-0.8-0.2-1.1l0,0l-0.2,0.1l-0.1-0.1l0,0l0,0
		l0,0l0.3,0l0,0c0,0,0,0,0,0l0,0c0.2-0.4,0.2-0.8,0.2-1.2c0,0-0.2-0.1-0.2-0.1c-0.2,0.1-0.3,0.1-0.5,0.2c0,0,0,0,0,0l0,0
		c0,0,0,0,0,0c0-0.1,0-0.3,0.2-0.4c0.3-0.2,0.3-0.4,0.3-0.7c0-0.2-0.1-0.3-0.2-0.5c-0.1-0.2,0.1-0.4,0.3-0.5l0,0
		c-0.2-0.5-0.2-1-0.7-1.4l-0.6-0.1c0,0,0,0,0,0c0,0,0,0,0,0c0.2,0.3,0.4,0.6,0.7,0.9c-0.9-0.1-1.3-0.4-1.1-0.8
		c0.1-0.1,0.3-0.1,0.5-0.1c0,0,0,0,0,0l0,0c-0.1-0.5-0.2-0.9-0.3-1.4c0-0.2,0.2-0.4,0.3-0.6c0.1-0.4,0.1-0.8-0.1-1.2
		c-0.1-0.3-0.3-0.6-0.2-0.8l0,0c0,0,0,0,0,0c0,0,0,0,0,0l-0.3,0c0,0,0,0,0,0c0,0,0,0,0,0c0,0.1,0,0.1,0,0.2c0,0.1-0.1,0.1-0.2,0
		c0,0,0-0.1,0-0.1c0.1-0.1,0.2-0.1,0.2-0.2c0,0,0,0,0,0l0,0c0,0,0,0,0-0.1c0-0.1,0-0.2,0.1-0.2c0,0,0.1,0.1,0.2,0.1c0,0,0,0.1,0,0.2
		l0,0c0.5-0.2,0.6-0.6,0.7-1c0.1-0.5,0.3-1,0.4-1.5c0.1-0.2,0.2-0.4,0.1-0.6c-0.1-0.2,0.4-0.4,0.1-0.6c-0.1,0-0.1,0-0.1,0
		c-0.1,0.1-0.2,0.2-0.3,0.3c-0.1,0.4-0.2,0.7-0.3,1.1c0,0.1-0.1,0.2-0.2,0.3c0,0-0.2,0-0.3,0c0,0-0.1-0.1-0.1-0.1
		c0-0.2,0-0.3,0.1-0.5c0.1-0.3,0.3-0.7,0.4-1c0,0-0.1-0.1-0.2-0.2c-0.2,0.2-0.3,0.3-0.5,0.5c0,0,0,0,0,0.1c0,0,0,0,0,0
		c0,0.4-0.1,0.8-0.3,1.1c-0.3-0.4-0.2-0.6,0.3-1.1c0,0,0,0,0,0c0,0,0,0,0,0c0.1-0.3,0.1-0.4-0.5-0.5c-0.1,0.3-0.1,0.5-0.2,0.8
		c0,0.1-0.2,0.2-0.3,0.3c0,0,0,0,0,0c-0.5,0.2-0.7,0.4-0.7,0.8c0,0.1-0.1,0.3-0.1,0.4c0,0,0,0,0,0l0,0c0.4-0.1,0.3-0.4,0.6-0.7
		c0,0.1,0.1,0.2,0.1,0.3c-0.2,0.4-0.4,0.9-0.6,1.3c0,0.1-0.2,0.1-0.3,0.1l0,0c0,0,0,0,0,0c0.1,0.2,0.2,0.3,0.1,0.5
		c0,0-0.1,0.1-0.2,0.1c-0.1,0-0.2-0.1-0.2-0.1c0.1-0.2,0.2-0.3,0.3-0.5c0,0,0,0,0,0c0,0,0,0,0,0l0.2-1.1c0,0,0,0,0,0c0,0,0,0,0,0
		c-0.3,0-0.6,0.1-1,0.1c0.1,0.1,0.2,0.2,0.3,0.2c0.1,0.1,0.2,0.2,0,0.2c-0.2,0-0.4,0.1-0.5,0.2c-0.3,0.3-0.6,0.7-0.9,1
		c-0.1,0.1-0.2,0.1-0.3,0.2c-0.1,0-0.3-0.2-0.3-0.3c0-0.2,0.1-0.4,0.2-0.5c0.1-0.1,0.1-0.2,0-0.3c-0.4-0.3-0.1-0.6-0.2-0.8l0,0
		c-0.3-0.4-0.4-0.9-0.2-1.3c-0.4,0-0.7,0-1,0.1c-0.4,0.2-0.8,0.5-1.2,0.7c-0.6-0.1-1.1-0.2-1.7-0.4c-0.8-0.2-1.5-0.3-2.3-0.4
		c-0.7-0.1-1.2,0-1.8,0.2c-0.4,0.1-0.6,0.3-0.7,0.6L93,27.7c-0.2,0.9-0.5,1.7-0.7,2.6c-0.1,0.5-0.2,1.1-0.2,1.6c0,0.5,0,1-0.1,1.5
		c-0.1,1.1-0.3,2.2-0.5,3.4c-0.1,0.5-0.2,1-0.3,1.4c-0.2,0.6-0.4,1.2-0.5,1.8c-0.1,0.3-0.1,0.6-0.3,0.9c-0.3,0.5-0.4,1-0.2,1.5
		c0.1,0.3-0.1,0.6-0.2,0.9l0,0c0,0,0,0,0,0l0,0.1l-0.1,0c-0.3,0.2-0.3,0.5-0.3,0.8c0,0.2,0.1,0.4,0,0.6c-0.2,0.4-0.2,0.8-0.3,1.1
		c-0.1,0.3-0.2,0.6,0.1,0.8c0,0,0,0.1-0.1,0.2c-0.3,0.1-0.3,0.3-0.3,0.5c-0.1,0.5-0.1,1-0.2,1.4c-0.3,1-0.4,2-0.6,3L88,54.2L87.2,59
		c-0.1,0.6-0.2,1.2-0.3,1.8c-0.1,0.4-0.4,0.8-0.5,1.3c-0.3,0.8-0.6,1.6-0.7,2.5c0,0.3-0.1,0.6-0.2,1c-0.1,0.3-0.2,0.5-0.2,0.8
		c0,0.4-0.1,0.7-0.3,1c-0.3,0.7-0.5,1.5-0.1,2.3c0,0.1,0.1,0.2,0.1,0.3c-0.4,0.5-0.2,1.1-0.3,1.6c-0.1,0.3-0.1,0.5-0.3,0.7
		c-0.2,0.2-0.2,0.3-0.1,0.6c0,0.1,0,0.2,0.1,0.3c-0.1,0-0.2,0-0.3,0c-0.2,0.1-0.3,0-0.5,0c-0.2,0-0.3-0.1-0.5-0.2
		c-0.1-0.1-0.2-0.1-0.3,0c-0.1,0.1-0.2,0.1-0.3,0c-0.1-0.2-0.3-0.1-0.4-0.3c-0.1-0.2-0.3,0-0.5-0.2c-0.2-0.1-0.4-0.1-0.6-0.1
		c-0.1,0-0.2,0-0.3,0c-0.1-0.3-0.3-0.1-0.5-0.1c-0.2,0-0.5,0.1-0.7,0c-0.1,0-0.1,0-0.2,0.1c-0.2,0.1-0.3,0.1-0.5,0c0,0-0.1,0-0.1,0
		c-0.1,0.1-0.3,0.1-0.4,0c-0.1-0.1-0.3,0.2-0.5-0.1c-0.1,0-0.2,0.1-0.3,0.1c-0.1,0-0.3-0.1-0.4,0c-0.1,0-0.2,0-0.3,0
		c-0.1,0-0.1,0-0.2,0.1c-0.1,0.1-0.1,0.2-0.2,0.3c-0.1,0-0.2,0-0.4,0c0-0.1,0-0.3-0.1-0.3c-0.2-0.2-0.4-0.2-0.6-0.1
		c-0.1,0-0.2,0.1-0.3,0.1c-0.2-0.5-0.6-1-1.1-1.5c-0.1-0.1-0.2-0.2-0.1-0.3c0.2-0.5-0.1-0.8-0.5-1.1c-0.4-0.3-0.6-0.7-0.5-1.1
		c0.1-0.6-0.1-1.2-0.1-1.8c0,0,0,0,0,0c-0.4-0.3-0.4-0.3,0-0.6c0.2-0.2,0.1-0.2-0.2-0.2c-0.1,0-0.3,0-0.4,0
		c-0.2-0.2-0.3-0.4-0.4-0.6c-0.1-0.2-0.2-0.4-0.3-0.6c-0.1-0.2,0.1-0.3,0.3-0.5l0.4,0.1c-0.1-0.2-0.1-0.4-0.3-0.6
		c-0.2-0.2-0.2-0.4-0.1-0.6c0-0.1,0-0.2-0.1-0.2c-0.4-0.2-0.3-0.6-0.7-0.8C71,61.5,71,61.3,71,61.2c0-0.3-0.1-0.6,0-1
		c0.1-0.3-0.2-0.5-0.2-0.8c0.1-0.3-0.1-0.6-0.1-1c0.3,0,0.6,0,0.8,0c0-0.1,0.1-0.3,0.1-0.5c-0.4-0.1-0.8-0.1-1.3-0.2
		c0-0.1-0.1-0.3-0.1-0.4c0.1-0.2,0.1-0.3,0-0.5c-0.1-0.1-0.1-0.3,0-0.5l0.2-0.2c-0.2,0-0.4-0.1-0.5-0.2c0.1-0.6,0.1-1.1,0.2-1.6
		c0.2-0.1,0.4-0.3,0.7-0.4c0,0,0-0.1-0.1-0.1c-0.2,0-0.4,0-0.6,0c-0.2,0-0.3-0.3-0.1-0.3c0.7-0.2,1-0.5,0.4-0.8c0,0,0-0.1,0-0.2
		c0-0.3,0-0.6,0-0.9c-0.3-0.2-0.6-0.4-0.8-0.6c-0.2-0.2-0.2-0.4,0-0.6c0.2-0.2,0.3-0.3,0.2-0.6c-0.1-0.2,0.1-0.6,0.4-0.8l0,0l0-0.5
		c0-0.2-0.2-0.3-0.5-0.2c0,0,0,0,0,0c0,0,0,0,0,0c0,0.1,0,0.2-0.1,0.3c0,0-0.2,0-0.2,0.1c0-0.1-0.1-0.1,0-0.2
		c0.1-0.1,0.2-0.1,0.4-0.2c0,0,0,0,0,0c0,0,0,0,0,0c-0.2-0.3-0.5-0.5-0.6-0.8c0-0.3,0.3-0.6,0.5-1c0,0,0-0.1,0-0.1
		c-0.1-0.1-0.4-0.2-0.3-0.4l0.3-0.5c0.1-0.2,0-0.3-0.4-0.4C69,45.2,69,45,69.4,44.9c0.1,0,0.2-0.1,0.3-0.1c0.3-0.1,0.3-0.2,0-0.4
		c-0.2-0.1-0.5-0.1-0.4-0.2c0.3-0.3,0-0.5-0.1-0.7c0-0.1,0-0.3,0.1-0.4c0.7-0.5,0.9-1,0.8-1.5c0-0.1,0-0.3,0-0.4l0,0c0,0,0,0,0,0
		L69.7,41l0,0l0.4,0.1c0.4-0.3,0.2-0.6,0-0.9c-0.2,0-0.4,0.1-0.6,0.1c0-0.1-0.1-0.2,0-0.3c0.2-0.2,0.3-0.5,0-0.7
		c-0.1,0,0-0.2,0.1-0.3c0.2-0.2,0.4-0.3,0.7-0.5c-0.1-0.6-0.2-1.2-0.3-1.8c0.2,0,0.4,0,0.4,0.1c0,0.5,0.7,0.8,0.4,1.4
		c0,0,0,0.1,0.1,0.2c0.1,0,0.2,0.1,0.2,0.1c0.1,0,0.2-0.1,0.2-0.1c0.2-0.2,0.1-0.4,0-0.6c-0.1-0.1-0.3-0.3-0.3-0.4
		c0.1-0.5-0.3-1-0.3-1.5c-0.4-0.2-1-0.2-1.1-0.6c0-0.2-0.3-0.2-0.6-0.2c-0.2,0-0.3-0.1-0.3-0.3c0-0.1,0.1-0.3,0.2-0.4
		c0.2,0,0.3,0.2,0.6,0c-0.1-0.4-0.2-0.7-0.1-1.1c0.1-0.5-0.1-0.8-0.6-1l0,0l-0.1,0.2l-0.1-0.1l0,0l0,0l0,0l0.3,0l0,0c0,0,0,0,0,0
		l0,0c0.1-0.4-0.1-0.8-0.2-1.2c0,0-0.2,0-0.2,0c-0.1,0.1-0.3,0.2-0.4,0.3c0,0,0,0,0,0l0,0c0,0,0,0,0,0c0-0.2-0.1-0.3,0-0.4
		c0.2-0.3,0.2-0.5,0.1-0.7c-0.1-0.1-0.2-0.3-0.3-0.4c-0.2-0.2,0-0.4,0.2-0.5l0,0c-0.4-0.4-0.5-0.9-1.2-1.2l-0.6,0.1c0,0,0,0,0,0
		c0,0,0,0,0,0c0.3,0.2,0.6,0.4,0.9,0.7c-0.9,0.2-1.4,0-1.4-0.5c0-0.2,0.2-0.2,0.4-0.2c0,0,0,0,0,0l0,0c-0.3-0.4-0.5-0.8-0.7-1.3
		c-0.1-0.2,0.1-0.4,0-0.7c0-0.4-0.2-0.8-0.5-1.2c-0.2-0.2-0.5-0.5-0.5-0.8l0,0c0,0,0,0,0,0c0,0,0,0,0,0l-0.3,0c0,0,0,0,0,0
		c0,0,0,0,0,0c0,0,0,0,0,0l0,0c0,0,0,0-0.1-0.1c0-0.1-0.1-0.2,0.1-0.2c0,0,0.1,0,0.2,0.1c0,0,0.1,0.1,0.1,0.1l0,0
		c0.4-0.4,0.4-0.7,0.4-1.1c0-0.5-0.1-1-0.1-1.5c0-0.2,0-0.5-0.1-0.7c-0.2-0.2,0.3-0.5-0.1-0.6c0,0-0.1,0-0.1,0
		c-0.1,0.1-0.2,0.3-0.2,0.4c0,0.4,0.1,0.8,0.1,1.2c0,0.1,0,0.3-0.1,0.4c0,0-0.2,0.1-0.3,0.1c0,0-0.1,0-0.1,0c0-0.2-0.1-0.3-0.1-0.5
		c0-0.4,0-0.7,0-1.1c0,0-0.2-0.1-0.3-0.1c-0.1,0.2-0.2,0.4-0.3,0.6c0-0.4-0.1-0.4-0.6-0.4c0,0.3,0.1,0.6,0,0.8
		c0,0.1-0.1,0.2-0.2,0.3c0,0,0,0,0,0l0,0l0,0c-0.2,0.2-0.4,0.3-0.4,0.5c-0.1,0-0.1,0-0.2,0c-0.4,0.1-0.8,0-1.2-0.1
		c0.1-0.6,0.2-1.2,0.4-1.8c0.3-0.7,0.4-1.5,0.5-2.3c0-0.1,0-0.2-0.1-0.3c-0.1-0.1-0.4-0.1-0.5,0.1c-0.4,0.4-0.9,0.8-1.2,1.3
		c-0.2,0.3-0.3,0.7-0.5,1c-0.1,0.1-0.2,0.2-0.2,0.3c-0.4,0.7-0.9,1.5-1.3,2.2c-0.1,0.3-0.2,0.6-0.6,0.8c-0.1-0.1-0.2-0.2-0.3-0.2
		c-0.5-0.4-0.7-0.5-1.3-0.3c-0.3,0.1-0.7,0.1-0.9,0.2c-0.3,0.1-0.5,0.4-0.7,0.6c-0.3,0.2-0.6,0.4-0.8,0.6c-0.1,0-0.1,0-0.2,0
		c-0.7,0.1-1.2,0.3-1.7,0.6c-0.3,0.2-0.5,0.4-0.5,0.7l0,0.2c-0.8,0.6-1.5,1.1-2.2,1.7c-0.7,0.6-1.3,1.2-1.9,1.8
		c-0.3,0.2,0.1,0.6-0.2,0.8c-0.3,0.2-0.6,0.3-0.9,0.6c-0.7,0.9-1.2,1.8-1.6,2.7c-0.4,1-0.8,2.1-1.2,3.1c-0.2,0.5-0.5,0.9-0.5,1.5
		c0,0.4-0.2,0.8-0.4,1.2c-0.2,0.4-0.4,0.7-0.8,1c-0.2,0.2-0.4,0.3-0.2,0.6c0.2,0.2,0,0.5-0.2,0.7c-0.4,0.2-0.5,0.6-0.8,0.8
		c-0.5,0.2-0.3,0.7-0.6,1c-0.4,0.3-0.5,0.8-0.6,1.2c-0.1,0.2-0.2,0.4-0.3,0.7c-0.7,0.2-0.5,0.7-0.6,1.1c-0.1,0.6-0.1,1.2-0.4,1.7
		c-0.1,0.1-0.1,0.3,0,0.5c0.1,0.4,0.1,0.8-0.3,1.1c-0.1,0.1-0.1,0.2-0.1,0.3c0.1,0.4,0,0.7-0.2,1c-0.2,0.3,0.2,0.8-0.4,1
		c0,0.3,0,0.6-0.1,0.8c-0.1,0.3-0.3,0.6-0.3,0.9c0,0.2,0,0.4-0.1,0.6c-0.1,0.1,0,0.3,0.1,0.4c0.1,0.2,0.3,0.4,0.4,0.6
		c-0.1,0.3-0.2,0.5-0.2,0.8c-0.3,0-0.5-0.2-0.7,0c-0.4,0.4-0.5,0.9-0.4,1.4c0.1,0.4,0,0.8-0.2,1.2c-0.2,0.4-0.1,0.4,0.1,1.1
		c0.3-0.5,0.2-1.1,0.6-1.8c0.2,0.7,0.2,1.3,0.3,1.9c0,0.1,0,0.3-0.1,0.4c-0.3,0.3-0.2,0.6-0.3,0.9c-0.2,0.4,0.1,0.7,0.5,0.9
		c0.1,0.1,0.3,0.1,0.4,0.2c0.1,0.2,0.1,0.3,0,0.5c-0.1,0.1-0.3,0.2-0.5,0.1c-0.3-0.1-0.4,0-0.5,0.1c-0.2,0.2-0.3,0.4-0.2,0.7
		c0.1,0.2,0.1,0.4-0.1,0.6c-0.2,0.2-0.3,0.5-0.2,0.8c0,0.2,0,0.4-0.1,0.6c-0.1,0.8-0.1,1.5,0.2,2.4c0,0.1,0.1,0.3,0,0.4
		c-0.4,0.4-0.3,0.8,0,1.3c0.2,0.4,0.2,0.9,0,1.3c-0.3,0.6-0.4,1.3-0.7,1.9c0,0,0,0,0,0c0.2,0.4,0.2,0.4-0.3,0.6
		c-0.2,0.1-0.2,0.2,0.1,0.3c0.1,0.1,0.3,0.1,0.4,0.1c0.1,0.3,0.1,0.5,0.2,0.8c0,0.2,0.1,0.5,0,0.7c0,0.2-0.2,0.3-0.5,0.4L33.3,76
		c0,0.2,0,0.5,0.1,0.7c0.1,0.3,0.1,0.5-0.2,0.7c-0.1,0.1,0,0.2,0,0.3c0.4,0.3,0.1,0.7,0.5,1c0.1,0.1,0,0.3,0,0.4
		c-0.1,0.3-0.1,0.7-0.3,1c-0.1,0.3,0.1,0.6-0.1,0.9c-0.2,0.3-0.1,0.7-0.1,1c-0.3-0.1-0.5-0.1-0.8-0.2c-0.1,0.1-0.2,0.3-0.3,0.5
		c0.4,0.2,0.8,0.3,1.2,0.5c0,0.1,0,0.3-0.1,0.5c-0.1,0.2-0.2,0.3-0.2,0.5c0.1,0.2,0,0.3-0.2,0.5l-0.2,0.1c0.2,0.1,0.4,0.2,0.5,0.3
		c-0.2,0.6-0.4,1.1-0.6,1.7c-0.2,0.1-0.5,0.2-0.8,0.3c0,0,0,0.1,0.1,0.2c0.2,0,0.4,0,0.6,0.1c0.2,0.1,0.2,0.3,0,0.3
		c-0.7,0.1-1.1,0.3-0.6,0.8c0,0-0.1,0.1-0.1,0.2c-0.1,0.3-0.2,0.7-0.2,0.9c0.3,0.3,0.5,0.5,0.7,0.8c0.1,0.2,0.1,0.4-0.1,0.6
		c-0.3,0.2-0.4,0.3-0.3,0.6c0.1,0.3-0.2,0.6-0.6,0.8l0,0l-0.1,0.5c0,0.2,0.1,0.3,0.4,0.3c0,0,0,0,0,0c0,0,0,0,0,0
		c0-0.1,0.1-0.2,0.1-0.3c0,0,0.2,0,0.3,0c0,0.1,0,0.1,0,0.2c-0.1,0.1-0.3,0.1-0.4,0.1c0,0,0,0,0,0c0,0,0,0,0,0
		c0.2,0.3,0.4,0.6,0.4,0.9c0,0.3-0.4,0.6-0.6,0.9c0,0,0,0.1,0,0.1c0.1,0.1,0.4,0.3,0.2,0.4l-0.4,0.5c-0.2,0.2,0,0.4,0.3,0.5
		c0.4,0.2,0.3,0.3-0.1,0.5c-0.1,0-0.2,0-0.3,0.1c-0.3,0.1-0.3,0.2,0,0.4c0.2,0.1,0.5,0.2,0.3,0.3c-0.4,0.3,0,0.5,0,0.8
		c0,0.1-0.1,0.3-0.2,0.4c-0.8,0.4-1.1,0.9-1,1.5c0,0.1,0,0.3,0,0.4l0,0c0,0,0,0,0,0l0.4,0.2l0,0l-0.4-0.2c-0.4,0.3-0.3,0.6-0.1,0.9
		c0.2,0,0.4,0,0.7-0.1c0,0.1,0.1,0.2,0,0.3c-0.2,0.2-0.4,0.5-0.1,0.7c0.1,0-0.1,0.2-0.2,0.3c-0.2,0.1-0.5,0.3-0.8,0.4
		c0,0.7,0,1.3,0,2c-0.2,0-0.4-0.1-0.4-0.1c0.1-0.5-0.5-1-0.2-1.5c0,0,0-0.1-0.1-0.2c-0.1-0.1-0.2-0.1-0.2-0.1
		c-0.1,0-0.2,0.1-0.2,0.1c-0.2,0.2-0.2,0.4-0.1,0.6c0.1,0.2,0.3,0.3,0.2,0.5c-0.2,0.6,0.2,1.1,0.1,1.6c0.4,0.3,1,0.3,1,0.8
		c0,0.2,0.3,0.2,0.6,0.2c0.2,0,0.3,0.2,0.3,0.3c0,0.1-0.2,0.3-0.2,0.4c-0.2,0-0.3-0.3-0.6-0.1c0,0.4,0.1,0.9,0,1.3
		c-0.1,0.5,0,0.9,0.5,1.3l0,0l0.2-0.2l0.1,0.1l0,0l0,0l0,0l-0.3,0l0,0c0,0,0,0,0,0l0,0c-0.1,0.5,0.1,0.9,0.1,1.4c0,0,0.2,0,0.3,0
		c0.1-0.1,0.3-0.2,0.4-0.3c0,0,0,0,0,0l0,0c0,0,0,0,0,0c0,0.2,0.1,0.4,0,0.5c-0.2,0.3-0.2,0.6-0.1,0.9c0.1,0.2,0.2,0.3,0.3,0.5
		c0.2,0.2,0,0.4-0.2,0.6l0,0c0.4,0.5,0.6,1.1,1.2,1.4l0.6-0.1c0,0,0,0,0,0c0,0,0,0,0,0c-0.3-0.3-0.6-0.5-1-0.8
		c0.9-0.2,1.5,0.1,1.4,0.6c0,0.2-0.2,0.2-0.4,0.2c0,0,0,0,0,0l0,0c0.3,0.5,0.6,1,0.8,1.5c0.1,0.2,0,0.5,0,0.8
		c0.1,0.5,0.2,0.9,0.6,1.3c0.2,0.3,0.6,0.5,0.6,0.8l0,0c0,0,0,0,0,0c0,0,0,0,0,0l0.3-0.1c0,0,0,0,0,0c0,0,0,0,0,0c0-0.1,0-0.2,0-0.2
		c0-0.1,0.1-0.1,0.2-0.1c0,0,0,0.1,0,0.1c0,0.1-0.1,0.2-0.2,0.2c0,0,0,0,0,0l0,0c0,0,0,0,0.1,0.1c0.1,0.1,0.1,0.2-0.1,0.2
		c0,0-0.2,0-0.2-0.1c0,0-0.1-0.1-0.1-0.2l0,0c-0.4,0.4-0.3,0.8-0.3,1.3c0.1,0.6,0.2,1.1,0.3,1.7c0,0.3,0,0.5,0.2,0.7
		c0.2,0.2-0.2,0.5,0.2,0.7c0,0,0.1,0,0.1-0.1c0-0.1,0.1-0.3,0.1-0.4c-0.1-0.4-0.2-0.8-0.3-1.3c0-0.1,0-0.3,0-0.4
		c0,0,0.2-0.1,0.3-0.1c0,0,0.1,0,0.1,0c0.1,0.2,0.1,0.3,0.1,0.5c0,0.4,0.1,0.8,0.1,1.2c0,0.1,0.2,0.1,0.3,0.1
		c0.1-0.3,0.2-0.5,0.2-0.7c0,0,0,0,0-0.1c0,0,0,0,0,0c-0.2-0.4-0.3-0.8-0.2-1.3c0.4,0.3,0.5,0.5,0.2,1.3c0,0,0,0,0,0c0,0,0,0,0,0
		c0.1,0.4,0.1,0.4,0.7,0.4c-0.1-0.3-0.2-0.6-0.2-0.9c0-0.1,0.1-0.2,0.2-0.4c0,0,0,0,0,0c0.3-0.4,0.5-0.7,0.3-1.1
		c-0.1-0.2-0.1-0.3-0.1-0.5c0,0,0,0,0,0l0,0c-0.3,0.3-0.1,0.5-0.2,0.9c-0.1-0.1-0.2-0.2-0.2-0.2c0-0.5-0.1-1-0.1-1.6
		c0-0.1,0.1-0.2,0.2-0.2l0,0c0,0,0,0,0,0c-0.1-0.2-0.4-0.3-0.3-0.5c0-0.1,0.1-0.1,0.2-0.1c0.1,0,0.2,0,0.2,0.1
		c0,0.2-0.1,0.4-0.1,0.6c0,0,0,0,0,0c0,0,0,0,0,0l0.3,1.2c0,0,0,0,0,0c0,0,0,0,0,0c0.3-0.2,0.6-0.3,0.9-0.5c-0.2,0-0.3-0.1-0.4-0.1
		c-0.2,0-0.3-0.1-0.1-0.2c0.2-0.1,0.3-0.2,0.4-0.3c0.1-0.5,0.3-0.9,0.4-1.3c0-0.1,0.1-0.2,0.2-0.3c0.1-0.1,0.4,0.1,0.4,0.2
		c0.1,0.2,0.1,0.4,0,0.6c0,0.1,0,0.2,0.1,0.3c0.5,0.2,0.4,0.5,0.5,0.8c0,0,0,0,0,0c0.5,0.3,0.7,0.7,0.8,1.2c0.4-0.1,0.7-0.2,0.9-0.5
		c0.3-0.4,0.6-0.7,0.8-1.1c0.6-0.1,1.2-0.1,1.8-0.2c0.8-0.1,1.6-0.2,2.4-0.4c0.7-0.1,1.2-0.4,1.7-0.7c0.3-0.2,0.5-0.5,0.4-0.7
		c-0.1-0.8-0.2-1.5-0.3-2.3c-0.1-0.8-0.1-1.6-0.2-2.5c-0.1-0.5-0.1-1-0.3-1.5c-0.1-0.4-0.3-0.9-0.3-1.3c-0.1-0.5-0.1-1.1-0.2-1.6
		c0-0.5-0.1-1-0.1-1.6c0-0.5,0-1,0-1.5c0-0.6,0.1-1.3,0.1-1.9c0-0.3,0-0.6,0.1-1c0.2-0.5,0.2-1.1-0.1-1.6c-0.2-0.3-0.1-0.6,0.1-1
		l0,0c0,0,0,0,0,0l-0.1-0.1l0.1,0c0.3-0.3,0.2-0.6,0.1-0.8c-0.1-0.2-0.2-0.4-0.1-0.6c0.2-0.4,0.1-0.8,0.1-1.2c0-0.3,0.1-0.6-0.3-0.8
		c0,0,0-0.1,0-0.2c0.3-0.2,0.2-0.4,0.2-0.6c0-0.5-0.1-1,0-1.5c0.2-1,0.1-2,0.1-3c0-0.8,0-1.7,0-2.5c0-1.6,0.1-3.2,0.2-4.8
		c0-0.6,0-1.2,0.1-1.8c0.1-0.4,0.3-0.9,0.5-1.3c0.1-0.4,0.2-0.7,0.3-1.1C49,78.4,49,78.1,49,77.8c0-0.4,0-0.8,0.1-1.2
		c0-0.3,0.1-0.6,0.1-0.9c-0.1-0.2-0.3-0.4-0.4-0.6c-0.1-0.1-0.1-0.3-0.1-0.5c0.2,0,0.4,0,0.6-0.2l0,0c0,0,0,0-0.1-0.1
		c0,0,0-0.1,0-0.1c0,0,0,0,0,0c0,0,0,0,0,0.1l0,0.1c0,0,0,0,0,0l0,0c0.1-0.1,0.3,0,0.4-0.2c0,0,0.1,0,0.1,0c0.1,0.1,0.2,0.1,0.2,0.1
		c0,0,0,0,0,0c0-0.1,0.1-0.1,0.1-0.2c0,0,0-0.1-0.1-0.1c-0.2-0.1-0.3-0.3-0.5-0.4c-0.1,0-0.1-0.1-0.1-0.2c0-0.1-0.1-0.1-0.1,0
		c0,0.1-0.1,0.1-0.1,0.2c0-0.2-0.1-0.3-0.1-0.5c-0.1,0-0.1,0-0.2,0c-0.2,0-0.3-0.1-0.4-0.3l0,0l0,0c0,0.2-0.1,0.4,0.1,0.4
		c0,0,0,0,0,0c0,0,0.1,0.1,0,0.2c0,0.1-0.1,0.1-0.1,0.1c-0.1,0-0.1,0-0.2,0c-0.1-0.1-0.3-0.1-0.4-0.2c0,0-0.1-0.1-0.1-0.1
		c0.1-0.2,0.2,0,0.2-0.1c0.1,0,0.1-0.1,0.1-0.2l0,0l0,0l-0.1,0l0,0l0,0.1l0,0c0,0,0,0,0,0l0.3-0.1c0,0,0,0,0,0
		c0-0.1-0.1-0.1-0.1-0.1c-0.1,0-0.2,0-0.4-0.1c0.1-0.3,0.1-0.3,0.2-0.3c-0.1-0.1-0.1-0.1-0.2-0.2c0-0.1,0.1-0.1,0.1-0.1
		c0.2,0,0.3,0.1,0.5,0.1c0.1,0,0.1,0,0.2,0c0,0,0,0,0-0.1c0,0,0-0.1,0-0.1c-0.1,0-0.1-0.1-0.2-0.1c-0.2,0-0.3,0-0.5-0.1
		c-0.1,0-0.1-0.1-0.2-0.1c0,0,0,0,0-0.1c0.1-0.2,0.2,0.1,0.3,0c0.1-0.1,0.2,0,0.3,0c0.2,0,0.5,0.1,0.7,0.1c0.2,0,0.3,0.1,0.5,0.3
		l0,0c0.1,0,0.3-0.1,0.4-0.2c0,0,0.1,0,0.1,0c0.1-0.4,0.1-0.8,0.2-1.2c0.1-0.2,0.1-0.5,0.3-0.7c0.2-0.2,0.2-0.3,0.1-0.5
		c-0.1-0.3-0.1-0.7-0.1-1c0-0.5,0.2-0.9-0.2-1.4c-0.1-0.1-0.1-0.3,0-0.4c0.1-0.5,0-1.1,0.4-1.6c0.1-0.1,0.1-0.3,0-0.4
		c-0.3-0.4-0.2-0.8-0.2-1.1c0-0.4,0.1-0.8,0.1-1.2c0-1,0.1-1.9,0.6-2.8c0.2-0.3,0.2-0.7,0.2-1c-0.1-0.4-0.2-0.9-0.2-1.3
		c0-0.4,0.3-0.8,0.3-1.3c0.1-0.9,0.2-1.8,0.3-2.8c0.1-0.9,0.2-1.7,0.6-2.5c0.2-0.3,0.3-0.7,0.1-1c0-0.1,0-0.2,0.1-0.3
		c0.3-0.2,0.3-0.6,0.5-0.9c0.1-0.2,0.2-0.5,0.4-0.7c-0.1-0.2-0.1-0.4-0.1-0.6c0-0.3-0.1-0.7-0.1-1c-0.1-0.1-0.1-0.1-0.2-0.2
		c-0.1,0,0-0.2,0-0.3c0,0,0.1,0,0.2,0c0,0.1,0.1,0.2,0.1,0.3c0,0.1,0,0.1,0,0.2c0.1,0.1,0.2,0.3,0.3,0.4c0.1,0.1,0.1,0.2,0.1,0.3
		l0,0c0,0,0.1,0,0.1,0c0,0-0.1,0.1-0.1,0.1c0,0.2,0,0.5-0.2,0.7c0,0,0,0,0,0c0.1,0.1,0.1,0.2,0.3,0.2c0,0,0,0.1,0,0.2
		c-0.3,0.2-0.2,0.4-0.1,0.6c0.1,0.5,0.3,1,0.3,1.5c0,1.1,0.3,2.1,0.5,3.1l0.5,2.6c0.3,1.7,0.7,3.3,1.1,4.9c0.1,0.6,0.3,1.2,0.4,1.9
		c0.1,0.5,0,0.9,0,1.4c0,0.9,0,1.8,0.3,2.6c0.1,0.3,0.1,0.7,0.2,1c0,0.3,0,0.5,0.1,0.8c0.1,0.4,0.2,0.7,0.2,1.1
		c0,0.4,0.1,0.8,0.2,1.2c0,0,0,0,0,0c0,0,0,0,0,0l0,0L57.5,71l0,0l0.1-0.2c0,0,0,0,0,0c-0.1-0.2-0.2-0.1-0.4-0.1c0,0.1,0,0.2,0,0.3
		c0,0-0.1,0-0.1,0C57,71,56.9,70.9,56.8,71c0,0-0.1,0-0.1-0.1c-0.1-0.1-0.1-0.2-0.2-0.4c-0.3,0-0.6,0-0.8-0.1c0-0.1,0-0.2,0.1-0.2
		c0.2,0.1,0.4-0.2,0.6,0c0,0,0.1,0,0.1,0c0,0,0.1-0.1,0.1-0.1c0,0,0-0.1,0-0.1c-0.1-0.1-0.2-0.1-0.2-0.1c-0.1,0-0.1,0.1-0.2,0.1
		c-0.2-0.1-0.5,0.1-0.7,0c-0.1,0.2-0.2,0.5-0.4,0.5c-0.1,0-0.1,0.2-0.1,0.3c0,0.1-0.1,0.2-0.1,0.1c-0.1,0-0.1-0.1-0.1-0.1
		c0-0.1,0.1-0.1,0.1-0.3c-0.2,0-0.3,0-0.5-0.1c-0.2-0.1-0.4,0-0.5,0.2l0,0l0.1,0.1l-0.1,0l0,0l0,0l0,0l0-0.1l0,0c0,0,0,0,0,0l0,0
		c-0.2-0.1-0.4,0-0.5,0c0,0,0,0.1,0,0.1c0,0.1,0.1,0.1,0.1,0.2c0,0,0,0,0,0l0,0c0,0,0,0,0,0c-0.1,0-0.1,0-0.2-0.1
		c-0.1-0.1-0.2-0.1-0.3-0.1c-0.1,0-0.1,0.1-0.2,0.1c-0.1,0.1-0.2,0-0.2-0.1l0,0c-0.2,0.1-0.4,0.2-0.6,0.5l0,0.3c0,0,0,0,0,0
		c0,0,0,0,0,0c0.1-0.1,0.2-0.3,0.4-0.4c0,0.5-0.1,0.7-0.3,0.6c-0.1,0-0.1-0.1-0.1-0.2c0,0,0,0,0,0l0,0c-0.2,0.1-0.4,0.2-0.6,0.2
		c-0.1,0-0.2-0.1-0.3-0.1c-0.2,0-0.3,0-0.5,0.1c0,0.1-0.1,0.3-0.2,0.4c-0.1,0.1,0,0.2,0.1,0.3c0.3,0.6,0.3,1.1,0.1,1.7
		c0,0,0,0,0,0.1c0,0,0,0.1-0.1,0.2c0,0.1-0.1,0.2-0.1,0.3c-0.1,0.3-0.2,0.7-0.2,1c0,0.2-0.1,0.5-0.2,0.7c-0.1,0.3-0.2,0.6-0.2,0.9
		c0,0.5-0.1,0.9-0.2,1.4c0,0,0,0.1,0,0.1c0.1,0.2,0.2,0.3,0.3,0.3c0.4,0,0.7,0.1,1.1,0.1c0.4,0.1,0.8,0.1,1.2,0.1c0.2,0,0.5,0,0.7,0
		c0.2,0,0.4-0.1,0.7-0.1c0.5,0,1,0,1.5,0c0.2,0,0.4,0,0.7,0.1c0.3,0,0.6,0.1,0.8,0.1c0.1,0,0.3,0,0.4,0.1c0.2,0.1,0.5,0.2,0.7,0
		c0.2-0.1,0.3,0,0.4,0.1l0,0c0,0,0,0,0,0l0,0l0,0c0.1,0.2,0.2,0.1,0.4,0.1c0.1,0,0.2-0.1,0.3-0.1c0.2,0.1,0.3,0.1,0.5,0.1
		c0.1,0,0.3,0.1,0.4-0.1c0,0,0.1,0,0.1,0c0.1,0.1,0.2,0.1,0.2,0.1c0.2,0,0.4,0,0.7,0C60.6,80,61,80,61.4,80c0.4,0.3,0.5,0.6,0.7,1
		c0.2,0.4,0.4,0.8,0.6,1.2c0.5,0.9,0.9,1.9,1,2.9c0,0.4,0.2,0.7,0.5,1c0.3,0.4,0.7,0.7,1,1.1c0.3,0.4,0.3,0.9,0.5,1.3
		c0.5,0.9,1,1.8,1.5,2.6c0.5,0.8,1,1.6,1.2,2.5c0.1,0.4,0.2,0.7,0.6,1c0.1,0.1,0.1,0.2,0.1,0.3c-0.1,0.4,0.1,0.7,0.2,1
		c0.1,0.3,0.2,0.5,0.1,0.8c0,0.5,0.2,0.8,0.7,1c0.3,0.1,0.5,0.2,0.9,0.3c0.1,0,0.1,0.1,0.1,0.2c0,0-0.1,0.1-0.2,0.1
		c-0.4,0.2-0.5,0.2-0.4,0.4c0.1,0.4,0.2,0.7,0.3,1.1c0.1,0.6,0.2,1.2,0.9,1.5c0.3,0.1,0.4,0.4,0.5,0.7c0.4,0.7,0.7,1.4,1.1,2
		c0.4,0.7,0.8,1.4,1.2,2.1c0.4,0.6,0.8,1.2,1.7,1.5c0.1,0.1,0.3,0.2,0.1,0.4c-0.4,0.3-0.4,0.6-0.2,0.9l1.4,2.2
		c0.1,0.1,0.2,0.2,0.4,0.3c0.5,0.1,0.7,0.4,1.1,0.5c0.1,0,0.1,0.1,0.1,0.2c-0.1,0.2-0.2,0.4-0.2,0.6c0.3,0.5,0.6,1,0.9,1.5
		c0.5,0.7,1,1.3,1.4,2c0.3,0.6,6.7,2.6,7,2.3c0.1,0.1,0.2,0.1,0.3,0.2c0.6,0.3,0.8,0.3,1.3-0.1c0.2-0.2,0.6-0.3,0.8-0.5
		c0.2-0.2,0.3-0.5,0.5-0.7c1.2-1.6,2.6-3.2,3.7-4.8c0.4-0.7,0.8-1.4,1.2-2.1c0.2-0.3-0.3-0.5-0.1-0.7c0.2-0.2,0.5-0.4,0.6-0.7
		c0.4-0.9,0.6-1.9,0.7-2.8l0.2-3.1c0-0.5,0.2-0.9,0.1-1.4c-0.1-0.4,0-0.8,0.1-1.1c0.1-0.4,0.2-0.7,0.5-1.1c0.2-0.2,0.3-0.4,0-0.6
		c-0.2-0.2-0.2-0.5,0-0.6c0.3-0.3,0.3-0.6,0.6-0.9c0.4-0.3,0.1-0.7,0.4-1c0.3-0.4,0.3-0.8,0.3-1.2c0-0.2,0.1-0.4,0.1-0.7
		c0.6-0.3,0.3-0.7,0.3-1.1c0-0.5-0.2-1.1,0.1-1.6c0.1-0.1,0-0.3-0.1-0.5c-0.2-0.4-0.2-0.7,0.1-1c0.1-0.1,0.1-0.2,0.1-0.3
		c-0.1-0.3-0.1-0.6,0-0.9c0.1-0.3-0.3-0.7,0.2-1c0-0.3-0.1-0.5-0.1-0.8c0-0.3,0.2-0.6,0.2-0.8c0-0.2,0-0.4,0-0.6
		c0-0.1,0-0.3-0.1-0.4c-0.1-0.2-0.3-0.3-0.5-0.5c0-0.3,0.1-0.5,0.1-0.8c0.3,0,0.5,0.1,0.7-0.1c0.3-0.4,0.4-0.9,0.2-1.3
		c-0.1-0.4-0.1-0.8,0-1.1c0.1-0.4,0.1-0.4-0.3-1c-0.3,0.5,0,1.1-0.4,1.7c-0.3-0.6-0.4-1.2-0.5-1.7c0-0.1-0.1-0.3,0-0.4
		c0.3-0.3,0.1-0.6,0.2-0.8c0.1-0.4-0.1-0.6-0.6-0.8c-0.1-0.1-0.3-0.1-0.4-0.2c-0.1-0.1-0.1-0.3-0.1-0.5c0-0.1,0.3-0.2,0.5-0.1
		c0.2,0.1,0.4,0,0.5-0.1c0.2-0.2,0.3-0.4,0.2-0.6c-0.1-0.2-0.1-0.4,0-0.6c0.2-0.2,0.2-0.5,0.2-0.7c0-0.2,0-0.4,0-0.6
		c0.1-0.7,0-1.4-0.3-2.2c0-0.1-0.1-0.3,0-0.4c0.4-0.4,0.2-0.8,0-1.2c-0.2-0.4-0.2-0.8,0-1.2c0.3-0.6,0.4-1.2,0.6-1.7c0,0,0,0,0,0
		c-0.2-0.4-0.2-0.4,0.2-0.6c0.2-0.1,0.2-0.2-0.1-0.3c-0.1,0-0.3-0.1-0.3-0.1c-0.1-0.3-0.1-0.5-0.1-0.7c0-0.2,0-0.4,0-0.7
		c0-0.2,0.2-0.3,0.5-0.3l0.3,0.2c0-0.2,0-0.4,0-0.6c-0.1-0.2-0.1-0.4,0.2-0.6c0.1,0,0.1-0.2,0-0.3c-0.3-0.3-0.1-0.6-0.4-0.9
		c-0.1-0.1,0-0.3,0-0.4c0.1-0.3,0.1-0.6,0.3-0.9c0.2-0.3,0-0.6,0.2-0.8c0.2-0.3,0.1-0.6,0.2-0.9c0.3,0.1,0.5,0.1,0.7,0.2
		c0.1-0.1,0.2-0.3,0.3-0.4c-0.4-0.2-0.7-0.3-1.1-0.5c0-0.1,0-0.3,0.1-0.4c0.1-0.1,0.2-0.3,0.2-0.4c0-0.2,0-0.3,0.2-0.4l0.2-0.1
		c-0.2-0.1-0.4-0.2-0.4-0.3c0.3-0.5,0.5-1,0.8-1.5c0.2-0.1,0.5-0.1,0.8-0.2c0,0,0-0.1,0-0.1c-0.2-0.1-0.4-0.1-0.6-0.1
		c-0.2-0.1-0.1-0.3,0-0.3c0.7,0,1-0.2,0.7-0.6c0,0,0.1-0.1,0.1-0.2c0.1-0.3,0.2-0.6,0.3-0.8c-0.2-0.3-0.4-0.5-0.5-0.8
		c-0.1-0.2-0.1-0.4,0.2-0.5c0.3-0.1,0.4-0.2,0.4-0.5c0-0.3,0.3-0.5,0.6-0.7l0,0l0.2-0.5c0.1-0.2-0.1-0.3-0.4-0.3c0,0,0,0,0,0
		c0,0,0,0,0,0c0,0.1-0.1,0.2-0.2,0.2c0,0-0.2,0-0.3,0c0-0.1,0-0.1,0-0.2c0.1,0,0.3,0,0.4-0.1c0,0,0,0,0,0c0,0,0,0,0,0
		c-0.1-0.3-0.3-0.6-0.2-0.9c0.1-0.3,0.5-0.5,0.7-0.8c0,0,0-0.1,0.1-0.1c-0.1-0.1-0.3-0.3-0.1-0.4l0.4-0.4c0.2-0.2,0.1-0.3-0.2-0.5
		c-0.3-0.2-0.2-0.3,0.2-0.4c0.1,0,0.2,0,0.3,0c0.3-0.1,0.4-0.2,0.1-0.3c-0.1-0.1-0.4-0.2-0.3-0.3c0.4-0.2,0.1-0.5,0.2-0.7
		c0-0.1,0.1-0.3,0.2-0.3c0.8-0.3,1.2-0.7,1.3-1.2c0-0.1,0.1-0.2,0.1-0.4l0,0c0,0,0,0,0,0l-0.3-0.2l0,0l0.3,0.2
		c0.5-0.2,0.4-0.5,0.3-0.8c-0.2,0-0.4,0-0.6,0c0-0.1,0-0.2,0-0.3c0.2-0.2,0.5-0.4,0.3-0.6c0-0.1,0.1-0.2,0.2-0.2
		c0.2-0.1,0.5-0.2,0.8-0.3c0.1-0.6,0.2-1.2,0.3-1.8c0.1,0.1,0.3,0.1,0.3,0.2c-0.2,0.4,0.3,1-0.1,1.4c0,0,0,0.1,0,0.2
		c0,0.1,0.1,0.1,0.2,0.1c0.1,0,0.2,0,0.3-0.1c0.2-0.1,0.2-0.3,0.2-0.5C109.1,41.4,109,41.2,109,41.1z M108.1,36.7
		c0.1,0,0.2,0.1,0.2,0.1c0.1,0.2,0,0.3-0.1,0.4c-0.3-0.1-0.2-0.3-0.3-0.4C107.9,36.8,108,36.7,108.1,36.7z M35.3,57.5l-0.1-0.2
		l0.2-0.1c0,0.1,0.1,0.1,0.1,0.2C35.4,57.4,35.3,57.5,35.3,57.5z M30.5,106.1c-0.1,0-0.2-0.1-0.2-0.1c-0.2-0.7-0.3-1.5-0.2-2.3
		c0-0.1,0.1-0.2,0.2-0.2c0,0,0,0,0,0l0,0l0,0.1c0,0,0,0,0,0c0.1,0.1,0.2,0.2,0.1,0.3c-0.1,0.5,0.1,1,0,1.5c-0.1,0.2,0.2,0.4,0.2,0.7
		C30.7,106,30.5,106.1,30.5,106.1z M30.6,108.7c-0.1,0-0.2,0-0.3-0.1c-0.1-0.2-0.1-0.3,0-0.5c0.3,0.1,0.3,0.3,0.4,0.4
		C30.8,108.5,30.7,108.6,30.6,108.7z M31.6,108c-0.1,0-0.2-0.1-0.2-0.1c0-0.1,0.1-0.1,0.2-0.2l0.1,0.1L31.6,108z M32.2,111.1
		c0,0-0.1-0.1-0.1-0.1c0,0,0.1-0.1,0.1-0.1c0.1,0,0.1,0,0.2,0.1L32.2,111.1z M32.1,101.9C32.1,101.9,32.1,101.9,32.1,101.9
		L32.1,101.9l0.1,0.5c0,0-0.1,0-0.1,0.1c0,0-0.1,0-0.1,0L32.1,101.9L32.1,101.9C32.1,101.9,32.1,101.9,32.1,101.9
		c0.1-0.1,0-0.2-0.1-0.4c-0.1-0.1-0.2-0.2,0.1-0.2c0.1,0,0.2,0.1,0.3,0.2C32.5,101.7,32.4,101.8,32.1,101.9z M32.8,112.9
		C32.8,112.9,32.8,112.9,32.8,112.9l-0.1-0.1C32.7,112.8,32.7,112.8,32.8,112.9C32.8,112.8,32.8,112.9,32.8,112.9L32.8,112.9
		L32.8,112.9z M33.2,92.2C33.2,92.2,33.1,92.2,33.2,92.2C33.1,92.2,33.2,92.2,33.2,92.2c0-0.1,0.1,0,0.1,0
		C33.3,92.2,33.2,92.2,33.2,92.2z M36.4,53.9c0,0.1,0.1,0.1,0.1,0.2c0,0-0.1,0-0.1,0.1l-0.1-0.2L36.4,53.9z M36.2,54.9
		c0-0.1-0.1-0.1-0.1-0.2c0-0.1,0.1-0.1,0.2-0.1c0,0.1,0.1,0.1,0.1,0.2C36.3,54.8,36.2,54.9,36.2,54.9z M36.6,120.2l-0.2-0.1
		c0-0.1,0-0.1,0-0.2c0,0,0.1,0,0.1,0c0.1,0.1,0.1,0.1,0.1,0.2C36.7,120.1,36.6,120.1,36.6,120.2z M36.8,55.6
		C36.7,55.5,36.7,55.5,36.8,55.6c-0.1-0.4,0-0.5,0.3-0.6c0,0,0.1,0,0.1,0c0.2,0.1,0.1,0.3-0.3,0.5C36.9,55.6,36.8,55.6,36.8,55.6z
		 M36.9,114.5L36.9,114.5l0.1-0.1c0,0,0.1,0.1,0.1,0.1C37,114.5,36.9,114.5,36.9,114.5z M37.2,112.4c0,0-0.1,0-0.1,0.1
		c0,0-0.1,0-0.1,0c0-0.1,0.1-0.2,0.1-0.4c0,0,0.1,0,0.1,0c0,0,0.1,0,0.1,0.1C37.2,112.2,37.2,112.3,37.2,112.4z M37.7,113.3
		L37.7,113.3L37.7,113.3L37.7,113.3z M38.6,54.3c-0.2,0.3-0.2,0.6-0.3,0.9c-0.1,0.2-0.2,0.3-0.3,0.4c0,0-0.1,0-0.1,0
		c-0.1-0.1-0.2-0.1-0.1-0.2c0.2-0.3,0.4-0.6,0.3-1c0-0.4,0.2-0.7,0.5-1.1C38.7,53.8,38.8,54,38.6,54.3z M38.8,52.6
		c0-0.1-0.1-0.1-0.1-0.2c0-0.1,0.1-0.1,0.1-0.1c0,0.1,0.1,0.1,0.1,0.2C38.9,52.5,38.9,52.5,38.8,52.6z M45.1,71.3L45.1,71.3
		L45.1,71.3L45.1,71.3z M45.1,73.3L45.1,73.3l0-0.2c0,0,0,0.1,0,0.1C45.2,73.2,45.1,73.2,45.1,73.3z M45.3,71.5L45.3,71.5
		c0-0.1,0-0.1,0-0.1C45.3,71.4,45.4,71.5,45.3,71.5C45.3,71.5,45.3,71.5,45.3,71.5z M45.6,73.3C45.6,73.3,45.6,73.3,45.6,73.3
		L45.6,73.3L45.6,73.3C45.6,73.3,45.6,73.3,45.6,73.3z M45.7,71.9C45.6,71.9,45.6,71.9,45.7,71.9C45.6,71.8,45.6,71.8,45.7,71.9
		C45.6,71.8,45.6,71.8,45.7,71.9C45.7,71.9,45.7,71.9,45.7,71.9z M45.6,71.5c0.1-0.1,0.1-0.1,0.2,0C45.7,71.6,45.7,71.6,45.6,71.5z
		 M46.2,73.6C46.2,73.5,46.2,73.5,46.2,73.6C46.2,73.5,46.2,73.5,46.2,73.6L46.2,73.6L46.2,73.6z M46,72c0.1-0.1,0.1-0.1,0.3,0
		C46.2,72.1,46.1,72.1,46,72z M47.7,71.5L47.7,71.5L47.7,71.5L47.7,71.5z M47.3,71.5c0,0,0.1,0,0.1,0c0,0,0,0,0,0.1c0,0,0,0,0,0
		C47.3,71.6,47.3,71.6,47.3,71.5C47.2,71.5,47.3,71.5,47.3,71.5z M46.6,73.4L46.6,73.4C46.6,73.4,46.6,73.4,46.6,73.4l0,0.2
		c0,0,0,0,0,0.1c0,0,0-0.1,0-0.1C46.5,73.5,46.6,73.5,46.6,73.4L46.6,73.4C46.6,73.4,46.6,73.4,46.6,73.4L46.6,73.4
		C46.6,73.4,46.6,73.4,46.6,73.4z M46.8,96.3L46.8,96.3l0.1,0L46.8,96.3z M46.9,72.5L46.9,72.5c0-0.1-0.1-0.2-0.1-0.3
		c0.1,0,0.1,0,0.2,0c0.1,0,0.2,0,0.2-0.1c0-0.1,0.1,0,0.2,0c0,0.2,0,0.3,0,0.4C47.2,72.4,47,72.5,46.9,72.5L46.9,72.5L46.9,72.5z
		 M47,73.6C47,73.5,46.9,73.5,47,73.6c-0.1-0.2,0-0.2,0-0.1C47,73.4,47.1,73.5,47,73.6L47,73.6z M47.4,96.4
		C47.4,96.4,47.3,96.3,47.4,96.4c-0.1-0.1,0-0.1,0-0.2l0.1,0.1L47.4,96.4z M48,74.3C48,74.3,48,74.3,48,74.3L48,74.3
		C48,74.2,48,74.2,48,74.3c-0.1,0-0.1,0-0.2,0.1c-0.1,0-0.1,0-0.2-0.1c0,0,0,0,0,0c0,0,0,0,0,0l0,0c0,0,0,0,0,0l0,0c0,0,0,0,0,0
		C47.7,74.2,47.8,74.1,48,74.3C48,74.2,48,74.2,48,74.3C48,74.2,48,74.3,48,74.3L48,74.3C48,74.3,48,74.3,48,74.3z M48.6,73.9
		C48.6,73.9,48.6,73.9,48.6,73.9L48.6,73.9L48.6,73.9C48.6,73.9,48.6,73.9,48.6,73.9c0,0-0.1,0.1-0.1,0.1c-0.2,0-0.4,0-0.6-0.2
		c0,0,0,0,0-0.1C48.3,73.7,48.3,73.8,48.6,73.9z M53,47.5c0,0-0.1,0-0.1,0c0,0-0.1,0-0.1,0c0-0.2-0.1-0.3-0.1-0.5
		c0.1-0.1,0.2-0.1,0.2-0.1c0.1,0.1,0.2,0.1,0.2,0.2C53.1,47.2,53.1,47.3,53,47.5z M53.2,44.6C53.2,44.6,53.2,44.6,53.2,44.6
		L53.2,44.6L53.2,44.6z M54.2,44.5c0,0-0.2,0-0.3,0c-0.1,0-0.2-0.1-0.2-0.1c0-0.1,0-0.1,0-0.2c0.1-0.2,0.3-0.3,0.5-0.6
		C54.4,44,54.2,44.3,54.2,44.5z M54.2,43C54.1,43,54.1,43,54.2,43c0-0.1,0-0.1,0.1-0.2l0.1,0.1C54.3,43,54.2,43,54.2,43z M54.5,47
		L54.5,47L54.5,47L54.5,47z M51.4,73.5C51.3,73.5,51.3,73.4,51.4,73.5L51.4,73.5L51.4,73.5C51.4,73.5,51.4,73.5,51.4,73.5z
		 M51.8,73.9L51.8,73.9L51.8,73.9L51.8,73.9z M52.3,71.6L52.3,71.6C52.3,71.5,52.3,71.6,52.3,71.6C52.3,71.6,52.3,71.6,52.3,71.6
		L52.3,71.6L52.3,71.6C52.2,71.6,52.3,71.6,52.3,71.6z M52.3,73.8C52.3,73.8,52.3,73.8,52.3,73.8c-0.1,0-0.1,0-0.1,0c0,0,0,0,0-0.1
		c0,0,0-0.1,0-0.1C52.3,73.7,52.3,73.7,52.3,73.8C52.4,73.7,52.4,73.8,52.3,73.8z M53,71.5l0-0.1c0,0,0,0,0.1-0.1c0,0,0,0,0,0.1
		C53,71.5,53,71.5,53,71.5z M54.1,70.9C54.1,70.9,54,70.8,54.1,70.9c-0.1-0.1,0-0.2,0-0.2c0.1,0,0.1,0,0.2,0
		C54.2,70.8,54.1,70.8,54.1,70.9z M54.3,71.4L54.3,71.4c0-0.1,0-0.2,0-0.2C54.3,71.2,54.3,71.3,54.3,71.4L54.3,71.4z M56.2,70.9
		C56.2,70.9,56.2,70.9,56.2,70.9c-0.1,0-0.1,0.1-0.2,0.1c-0.2-0.1-0.4,0-0.6-0.1c-0.1,0-0.2,0.1-0.3,0.1c0,0,0-0.1-0.1-0.1
		c0,0,0-0.1,0.1-0.1c0.3-0.1,0.7-0.1,1,0C56.1,70.7,56.2,70.8,56.2,70.9C56.2,70.8,56.2,70.8,56.2,70.9L56.2,70.9L56.2,70.9z M57,72
		c-0.1,0.1-0.1,0-0.1-0.2c0,0,0,0,0,0c0,0,0,0,0,0l-0.2,0c0,0,0,0,0,0c0,0,0-0.1,0-0.1c0.1,0,0.1,0,0.2,0.1l0,0c0,0,0,0,0,0
		c0.1,0,0.1,0,0.2,0c0,0,0.1-0.1,0.1,0C57,71.9,57,71.9,57,72z M73.1,72.4C73.1,72.4,73.1,72.4,73.1,72.4C73,72.5,73,72.5,73.1,72.4
		c-0.1,0.1-0.1,0-0.1,0C73,72.4,73,72.4,73.1,72.4z M69.8,72.6C69.8,72.6,69.8,72.7,69.8,72.6C69.8,72.7,69.8,72.7,69.8,72.6
		L69.8,72.6L69.8,72.6z M69.2,72.7L69.2,72.7C69.2,72.7,69.2,72.7,69.2,72.7C69.2,72.7,69.2,72.7,69.2,72.7L69.2,72.7z M68.9,35.6
		c0.1,0,0.2,0,0.2,0.1c0.3,0.7,0.5,1.4,0.5,2.1c0,0.1-0.1,0.2-0.2,0.3c0,0,0,0,0,0l0,0l0-0.1c0,0,0,0,0,0c-0.1-0.1-0.2-0.2-0.2-0.3
		c0-0.5-0.3-0.9-0.2-1.4c0-0.2-0.2-0.4-0.3-0.6C68.7,35.7,68.8,35.7,68.9,35.6z M69,72.1L69,72.1L69,72.1L69,72.1z M68.5,33.4
		c0.1,0,0.2,0,0.3,0c0.1,0.1,0.1,0.3,0,0.5c-0.3,0-0.3-0.2-0.4-0.3C68.3,33.5,68.4,33.4,68.5,33.4z M68.3,49c0,0,0.1,0,0.1,0
		C68.4,49,68.4,49.1,68.3,49C68.3,49.1,68.3,49.1,68.3,49C68.3,49,68.3,49,68.3,49z M67.8,39.3c0,0,0.1,0,0.1,0l0,0.4l0,0.1
		c0,0,0,0,0,0c-0.1,0.1,0,0.2,0.1,0.3c0.1,0.1,0.2,0.2,0,0.2c-0.1,0-0.3-0.1-0.3-0.1c-0.1-0.2,0-0.3,0.2-0.4c0,0,0,0,0,0l0,0
		L67.8,39.3C67.7,39.3,67.7,39.3,67.8,39.3z M67.8,72.8C67.8,72.8,67.8,72.8,67.8,72.8L67.8,72.8L67.8,72.8L67.8,72.8z M67.6,34
		c0.1,0,0.2,0.1,0.2,0.1c0,0.1-0.1,0.1-0.2,0.2l-0.1-0.1L67.6,34z M66.8,31.3c0,0,0.1,0.1,0.1,0.1c0,0-0.1,0.1-0.1,0.1
		c-0.1,0-0.1,0-0.2-0.1L66.8,31.3z M66.2,29.8C66.2,29.8,66.2,29.8,66.2,29.8l0.1,0.1C66.3,29.9,66.2,29.9,66.2,29.8
		C66.2,29.9,66.2,29.8,66.2,29.8L66.2,29.8L66.2,29.8z M65.5,71.8L65.5,71.8L65.5,71.8L65.5,71.8z M65.4,72.4
		C65.4,72.4,65.4,72.4,65.4,72.4L65.4,72.4C65.4,72.4,65.4,72.4,65.4,72.4L65.4,72.4C65.4,72.4,65.4,72.4,65.4,72.4
		C65.4,72.4,65.4,72.4,65.4,72.4z M64.4,71.1L64.4,71.1l0,0.2C64.4,71.2,64.4,71.2,64.4,71.1C64.3,71.1,64.4,71.1,64.4,71.1z
		 M64,71.5L64,71.5L64,71.5L64,71.5z M60.5,71.5c0,0,0.1,0,0.1,0c0,0.1-0.1,0.2-0.1,0.2c0,0-0.1,0-0.1-0.1
		C60.4,71.6,60.5,71.6,60.5,71.5z M58.2,70.1L58.2,70.1L58.2,70.1L58.2,70.1z M58.8,79.6L58.8,79.6c0-0.1,0-0.1,0-0.1
		C58.8,79.5,58.8,79.6,58.8,79.6L58.8,79.6z M58.8,79.3L58.8,79.3L58.8,79.3L58.8,79.3z M60.9,72.1c0-0.1,0-0.1,0-0.2c0,0,0,0,0,0
		c0,0,0,0,0,0c0,0,0,0,0,0c0,0,0,0,0,0c0,0,0.1,0,0.1,0.1C60.9,72,60.9,72.1,60.9,72.1C60.9,72.1,60.9,72.1,60.9,72.1z M60.9,72.7
		C60.9,72.7,60.9,72.7,60.9,72.7c0-0.1,0-0.1,0-0.1C60.9,72.6,61,72.7,60.9,72.7C61,72.7,60.9,72.7,60.9,72.7z M61.2,71.7L61.2,71.7
		L61.2,71.7L61.2,71.7L61.2,71.7z M64.3,72.6C64.3,72.6,64.3,72.6,64.3,72.6c0-0.1-0.1-0.1-0.1-0.1c0,0,0-0.1,0-0.1
		c0,0,0.1,0,0.1,0.1C64.3,72.4,64.3,72.5,64.3,72.6C64.3,72.6,64.3,72.6,64.3,72.6C64.3,72.6,64.3,72.6,64.3,72.6L64.3,72.6z
		 M68.9,72.9C68.9,72.9,68.9,72.9,68.9,72.9L68.9,72.9C68.9,72.9,68.9,72.9,68.9,72.9C68.9,72.9,68.9,72.9,68.9,72.9L68.9,72.9
		L68.9,72.9C69,72.9,69,72.9,68.9,72.9z M70.8,97.1c-0.1,0-0.2,0-0.3,0c-0.1-0.1-0.2-0.3-0.3-0.4c0,0,0-0.1,0.1-0.1c0,0,0.1,0,0.1,0
		c0.1,0.1,0.3,0.2,0.4,0.3C70.8,96.9,70.8,97,70.8,97.1z M71.6,99.7c0,0,0.1-0.1,0.2-0.2c0.1,0,0.2,0,0.3,0c0.1,0,0.1,0.1,0.2,0.1
		c0,0.2,0,0.4,0.1,0.7C71.7,100.2,71.7,99.9,71.6,99.7z M72.7,101.1l-0.2,0c0.1-0.1,0.1-0.1,0.2-0.2c0,0,0.1,0,0.1,0
		C72.7,101,72.7,101,72.7,101.1z M75.6,72.6C75.6,72.6,75.6,72.6,75.6,72.6l0-0.1L75.6,72.6C75.7,72.6,75.7,72.6,75.6,72.6z
		 M83.5,79.6C83.5,79.6,83.5,79.7,83.5,79.6l0,0.2C83.5,79.7,83.5,79.7,83.5,79.6C83.5,79.7,83.5,79.6,83.5,79.6z M82.8,79.7
		C82.9,79.6,82.9,79.6,82.8,79.7c0.2,0,0.2,0,0.4,0.1c-0.1,0.2-0.3,0.2-0.4,0.1c0,0,0-0.1,0-0.1C82.8,79.7,82.8,79.7,82.8,79.7z
		 M81.4,79.7c0.1,0,0.1-0.1,0.2-0.1c0,0,0.1,0.1,0.1,0.1c0,0,0,0.1,0,0.1c-0.1,0-0.1,0-0.2,0C81.4,79.8,81.4,79.8,81.4,79.7
		C81.4,79.7,81.4,79.7,81.4,79.7z M77.9,73.6C78,73.6,78,73.7,77.9,73.6c0.1,0.1,0,0.1,0,0.1C77.9,73.7,77.9,73.7,77.9,73.6
		C77.9,73.7,77.9,73.6,77.9,73.6z M77.1,72.7L77.1,72.7c0,0.1,0,0.1,0,0.1C77.1,72.8,77.1,72.7,77.1,72.7L77.1,72.7z M76.8,72.6
		C76.8,72.6,76.8,72.7,76.8,72.6c0,0.1,0,0.1,0,0.1C76.7,72.8,76.7,72.7,76.8,72.6C76.7,72.7,76.7,72.6,76.8,72.6z M76.5,73.1
		C76.5,73,76.5,73,76.5,73.1c0.1-0.1,0.2-0.1,0.3,0.1c0,0,0,0.1,0,0.1C76.7,73.3,76.6,73.3,76.5,73.1C76.5,73.1,76.5,73.1,76.5,73.1
		z M76.7,74.8c-0.1,0-0.2-0.1-0.1-0.2c0,0,0.1,0,0.2-0.1c0,0.1,0,0.2,0,0.2C76.8,74.8,76.7,74.8,76.7,74.8z M77.2,73.8
		c-0.1-0.1-0.3,0-0.4-0.1c-0.1,0-0.1-0.1-0.2-0.1c0,0,0-0.1,0-0.1c0,0,0-0.1,0.1-0.1c0.1,0.1,0.3,0.1,0.4,0.1c0.2-0.1,0.3,0,0.5,0.1
		C77.4,73.8,77.3,73.9,77.2,73.8z M77.5,84c0-0.3-0.2-0.5-0.2-0.8c0-0.2,0-0.3,0-0.5c0,0,0.1-0.1,0.1-0.1c0.1,0,0.2,0,0.2,0.1
		c0,0.3,0,0.6,0.3,0.9c0.2,0.3,0.2,0.7,0.2,1.1C77.7,84.5,77.5,84.3,77.5,84z M78.5,85.8c-0.1,0-0.1-0.1-0.2-0.1c0,0,0-0.1,0-0.2
		c0.1,0,0.1,0.1,0.2,0.1C78.5,85.7,78.5,85.7,78.5,85.8z M78.4,82.8c0,0-0.1,0-0.1,0c-0.2,0-0.2-0.2-0.1-0.5c0,0,0.1-0.1,0.1-0.1
		c0,0,0.1,0,0.1,0C78.6,82.5,78.6,82.6,78.4,82.8z M78.6,80.3c-0.1,0-0.2-0.1-0.2-0.1c0,0,0-0.1,0-0.1c0,0,0-0.1,0.1-0.1l0.1,0.1
		l0.1,0L78.6,80.3z M79.3,82.7c-0.1,0-0.2-0.1-0.2-0.1c0,0,0-0.1,0.1-0.2c0.1,0,0.2,0,0.2,0.1C79.4,82.6,79.3,82.7,79.3,82.7z
		 M79.6,83.4c-0.1,0-0.1,0-0.2-0.1c0,0,0-0.1,0-0.1L79.6,83.4L79.6,83.4z M85,99.9l-0.2-0.1c0.1,0,0.1-0.1,0.2-0.1
		c0,0,0.1,0,0.1,0.1C85.1,99.9,85.1,99.9,85,99.9z M84.9,99.2c-0.4-0.3-0.3-0.6-0.2-0.8c0,0,0.2-0.1,0.2-0.1c0.1,0,0.2,0,0.2,0.1
		c0.1,0,0.1,0.1,0.1,0.2C85.2,98.7,85.1,98.9,84.9,99.2z M85.3,97c0,0-0.2,0-0.3,0c-0.2,0-0.4,0-0.4,0.1c0-0.1-0.1-0.2-0.1-0.3
		c-0.1-0.3-0.1-0.6-0.1-0.9c-0.1-0.2-0.1-0.4,0-0.6c0-0.1-0.1-0.2-0.3-0.2c-0.3-0.1-0.4-0.4-0.3-0.6c0.2-0.4,0-0.7,0.1-1
		c0.2-0.4-0.2-0.7-0.1-1c0.1-0.5-0.1-0.8-0.3-1.2c-0.1-0.2-0.1-0.4-0.2-0.6c0.4-0.5,0-0.7-0.2-1.1c-0.3-0.5-0.7-0.9-0.7-1.5
		c0-0.2-0.2-0.3-0.3-0.4c-0.3-0.3-0.5-0.6-0.4-1c0-0.1,0-0.2-0.1-0.3c-0.3-0.3-0.4-0.5-0.4-0.9c0-0.3-0.6-0.5-0.3-1
		c-0.1-0.2-0.3-0.4-0.4-0.7c-0.1-0.3-0.1-0.6-0.2-0.8c-0.1-0.2-0.2-0.3-0.2-0.5c0-0.1-0.1-0.2-0.3-0.3c-0.2-0.1-0.5-0.2-0.7-0.3
		c-0.1-0.3-0.2-0.5-0.2-0.7c0.2-0.1,0.5-0.1,0.6-0.3c0.1-0.3,0-0.6-0.1-0.9c0.2,0,0.4,0,0.7,0c0.2,0,0.3,0.1,0.5-0.1
		c0,0,0.1,0,0.1,0c0.1,0.1,0.3,0.1,0.4,0.1c0.1,0,0.2,0,0.3,0.1c0.2,0.1,0.3,0.1,0.5-0.1c0.1-0.1,0.2-0.2,0.2-0.4c0,0,0.1,0,0.1,0
		c0,0,0,0.1,0,0.1c0,0.2,0,0.3,0.1,0.3c0.2,0,0.3,0.1,0.5,0.1c0.2,0.1,0.5,0.2,0.7,0c0.1-0.1,0.2-0.1,0.3-0.1c0.3,0,0.6,0,0.9,0
		c0,0,0,0.1,0,0.1c0.1,1,0.1,1.9-0.3,2.9c-0.1,0.3-0.1,0.7,0,1.1c0.1,0.4,0.4,0.8,0.4,1.2c0,0.4-0.2,0.9-0.1,1.3
		c0.1,0.9,0.1,1.9,0.2,2.8c0.1,0.9,0.2,1.7-0.1,2.6c-0.1,0.3-0.2,0.7,0.1,1c0.1,0.1,0,0.2,0,0.3c-0.3,0.3-0.2,0.6-0.3,0.9
		c0,0.3-0.1,0.5-0.3,0.7c0,0,0,0.1-0.1,0.1c0.1,0.1,0.1,0.2,0,0.4c0,0.1,0,0.2,0,0.3c0.1,0.1,0.1,0.2,0.2,0.4
		c0.2,0.2,0.4,0.4,0.7,0.5C85.4,96.8,85.3,96.9,85.3,97z M85.3,95.8c-0.1,0-0.2-0.1-0.2-0.1c0-0.2,0-0.3-0.1-0.5c0,0,0.1,0,0.1,0
		c0,0,0.1,0,0.1,0c0.1,0.2,0.1,0.3,0.2,0.4C85.4,95.7,85.4,95.8,85.3,95.8z M89.9,45.8L89.9,45.8l0.1-0.2c0,0,0.1,0.1,0.1,0.1
		C90,45.8,89.9,45.8,89.9,45.8z M90.5,45.9L90.5,45.9L90.5,45.9L90.5,45.9z M97.4,88.6c0-0.1-0.1-0.1-0.1-0.1c0,0,0.1-0.1,0.1-0.1
		c0,0,0.1,0.1,0.1,0.1C97.6,88.4,97.5,88.5,97.4,88.6z M97.9,86.4c0.1,0.4-0.1,0.7-0.3,1.1c-0.2-0.4-0.3-0.6-0.2-0.9
		c0.1-0.3,0.1-0.6,0.2-0.8c0-0.1,0.2-0.3,0.2-0.4c0,0,0.1,0,0.1,0c0.1,0,0.2,0.1,0.2,0.1C97.9,85.8,97.8,86.1,97.9,86.4z M99.6,85.8
		c0,0.1,0.1,0.1,0.1,0.2c0,0-0.1,0.1-0.1,0.1c0-0.1-0.1-0.1-0.1-0.2C99.5,85.9,99.5,85.8,99.6,85.8z M99.5,86.6l0.1,0.1l-0.1,0.1
		C99.5,86.7,99.4,86.7,99.5,86.6C99.4,86.6,99.5,86.6,99.5,86.6z M98.9,85.3C99,85.3,99,85.3,98.9,85.3c0.2,0.3,0.1,0.5-0.2,0.5
		c0,0-0.1,0-0.1,0c-0.2-0.1-0.1-0.3,0.2-0.5C98.8,85.3,98.9,85.3,98.9,85.3z M102.8,31.4L102.8,31.4L102.8,31.4L102.8,31.4z
		 M102.7,51.5C102.6,51.4,102.6,51.4,102.7,51.5C102.6,51.4,102.7,51.4,102.7,51.5c0.1-0.1,0.1,0,0.1,0
		C102.7,51.4,102.7,51.5,102.7,51.5z M102.9,32.6c0,0-0.1,0-0.1,0c0,0,0-0.1-0.1-0.1c0.1-0.1,0.1-0.1,0.2-0.2c0,0,0.1,0,0.1,0
		c0,0,0.1,0,0.1,0.1C103.1,32.4,103,32.5,102.9,32.6z M103.8,30.6L103.8,30.6c-0.1,0-0.1,0-0.1,0C103.8,30.5,103.8,30.5,103.8,30.6
		L103.8,30.6z M105.4,42.5L105.4,42.5C105.4,42.6,105.4,42.6,105.4,42.5c-0.1,0.2-0.1,0.3,0,0.4c0.1,0.1,0.1,0.2-0.1,0.2
		c-0.1,0-0.2-0.1-0.3-0.2C104.9,42.7,105.1,42.6,105.4,42.5C105.4,42.6,105.4,42.6,105.4,42.5L105.4,42.5l0-0.4c0,0,0.1,0,0.1,0
		c0,0,0.1,0,0.1,0L105.4,42.5z M106.2,26.1c0,0-0.1,0-0.1,0c0-0.1-0.1-0.1,0-0.2c0-0.1,0.1-0.1,0.2-0.1l0.1,0.2
		C106.3,26,106.2,26,106.2,26.1z M107.1,32.8C107.1,32.8,107.1,32.8,107.1,32.8l0.1,0.1C107.2,32.9,107.1,32.9,107.1,32.8
		C107.1,32.8,107.1,32.8,107.1,32.8L107.1,32.8L107.1,32.8z M107,37.3l-0.1-0.1l0.2-0.1c0,0,0.1,0.1,0.1,0.1
		C107.1,37.3,107,37.3,107,37.3z M107.2,34.5c-0.1,0-0.1-0.1-0.2-0.1l0.2-0.1c0,0,0.1,0.1,0.1,0.1C107.3,34.5,107.2,34.5,107.2,34.5
		z M107.7,41.2c0,0.1-0.2,0.1-0.3,0.2c0,0,0,0,0,0l-0.1,0l0-0.1c0,0,0,0,0,0c0-0.1-0.1-0.2-0.1-0.3c0.2-0.4,0.1-0.9,0.3-1.4
		c0.1-0.2-0.1-0.4-0.1-0.6c0,0,0.1-0.1,0.2-0.1c0.1,0,0.2,0.1,0.2,0.1C108,39.8,107.9,40.5,107.7,41.2z"/>
	<path class="st0" d="M100.7,77.9c0,0,0.1,0,0.1,0c0-0.1,0-0.2,0.1-0.2c-0.1,0-0.1,0-0.2,0C100.5,77.7,100.5,77.8,100.7,77.9z"/>
</g>
</svg>
